<?xml version="1.0" standalone="no"?>
<!DOCTYPE svg PUBLIC "-//W3C//DTD SVG 20010904//EN"
 "http://www.w3.org/TR/2001/REC-SVG-20010904/DTD/svg10.dtd">
<svg version="1.0" xmlns="http://www.w3.org/2000/svg"
 width="700.000000pt" height="700.000000pt" viewBox="0 0 700.000000 700.000000"
 preserveAspectRatio="xMidYMid meet">
<metadata>
Created by potrace 1.11, written by Peter Selinger 2001-2013
</metadata>
<g transform="translate(0.000000,700.000000) scale(0.100000,-0.100000)"
fill="#000000" stroke="none">
<path d="M3455 6478 c-11 -6 -27 -19 -35 -29 -13 -15 -34 -18 -147 -21 -141
-3 -155 -8 -155 -53 0 -47 20 -56 124 -57 l95 -1 -127 -216 c-70 -119 -246
-418 -392 -666 -146 -247 -408 -693 -583 -990 -175 -297 -349 -593 -387 -659
l-70 -118 -46 77 c-52 88 -78 106 -117 81 -32 -21 -32 -55 -2 -104 13 -20 35
-58 49 -83 14 -25 31 -54 38 -65 10 -16 4 -32 -40 -109 -29 -50 -63 -106 -75
-125 -12 -19 -129 -217 -260 -440 -131 -223 -380 -646 -553 -940 -174 -294
-359 -608 -411 -698 -53 -90 -103 -175 -112 -190 -223 -377 -250 -427 -245
-461 6 -37 28 -67 66 -86 20 -10 722 -12 3442 -11 l3417 1 27 21 c51 38 56
122 11 167 -17 17 -314 514 -592 992 -29 50 -156 266 -282 480 -192 326 -592
1007 -659 1122 -11 18 -40 67 -65 110 -26 43 -56 94 -68 113 l-21 36 60 104
c33 57 62 114 65 127 6 35 -29 67 -63 58 -15 -4 -28 -7 -28 -8 -1 -1 -24 -39
-51 -83 -55 -90 -48 -89 -93 -10 -9 17 -54 94 -100 171 -45 77 -90 154 -100
170 -10 17 -79 135 -155 264 -76 129 -145 248 -155 265 -9 17 -39 67 -65 111
-26 44 -69 116 -95 160 -81 136 -816 1389 -828 1411 -11 21 -10 21 84 21 103
0 134 14 134 59 0 47 -21 54 -165 54 -100 0 -136 3 -142 13 -25 41 -87 58
-128 35z m-86 -1959 c-23 -23 -20 -65 7 -85 12 -10 14 -137 14 -905 l0 -895
-27 -15 c-16 -9 -182 -105 -369 -213 -188 -108 -346 -196 -351 -196 -5 0 -17
16 -26 35 -28 59 -85 66 -112 15 -12 -24 -11 -30 12 -69 14 -23 23 -44 21 -45
-3 -3 -627 -363 -1158 -668 -129 -74 -368 -212 -530 -305 -162 -93 -325 -186
-362 -207 l-68 -38 97 164 c167 284 294 500 355 603 32 55 63 107 68 115 17
27 74 125 86 146 6 12 86 147 177 300 90 154 255 434 367 624 111 190 218 371
237 403 l35 58 45 -78 c54 -93 62 -102 94 -108 33 -6 58 13 61 45 2 24 -82
179 -123 225 -16 19 -6 39 357 655 206 349 378 642 384 650 5 8 19 32 30 53
11 20 25 37 31 37 5 0 35 -16 67 -36 52 -34 58 -35 81 -23 64 37 54 82 -29
129 -39 23 -58 40 -55 49 3 8 43 78 89 155 46 78 145 247 221 376 76 129 148
251 160 270 13 19 24 40 26 45 2 6 27 47 54 93 l50 82 3 -710 c2 -709 2 -710
-19 -731z m562 918 l305 -522 -58 -35 c-69 -41 -89 -79 -58 -110 28 -28 65
-25 122 11 47 28 51 29 63 12 8 -10 103 -171 213 -358 109 -187 283 -484 387
-660 l188 -320 -18 -30 c-95 -164 -113 -199 -109 -218 5 -26 25 -47 50 -51 18
-3 64 29 64 45 0 4 18 37 39 74 28 47 41 62 48 53 16 -25 32 -53 40 -68 4 -8
30 -53 58 -100 29 -47 63 -106 77 -130 14 -25 108 -184 208 -355 101 -170 190
-323 200 -340 9 -16 115 -196 235 -400 120 -203 227 -386 238 -405 11 -19 27
-47 36 -62 9 -15 58 -98 108 -185 51 -87 117 -200 148 -250 30 -51 52 -93 49
-93 -3 0 -110 60 -237 134 -376 217 -917 529 -1287 741 -190 109 -398 229
-463 267 l-117 69 26 44 c32 55 24 95 -20 106 -30 8 -48 -4 -91 -65 l-20 -27
-220 127 c-121 70 -287 166 -370 214 l-150 86 -1 885 c0 820 1 885 17 904 29
35 31 59 7 91 l-23 29 0 707 c0 390 2 708 5 708 3 -1 142 -236 311 -523z m124
-3313 c226 -130 428 -247 450 -259 22 -13 267 -154 545 -315 278 -161 708
-409 955 -552 248 -143 453 -263 457 -267 6 -5 -2818 -7 -2843 -2 -4 0 -9 10
-12 21 -3 13 -14 20 -30 20 -14 0 -29 5 -33 11 -6 10 -37 9 -94 -5 -14 -3 -33
-16 -44 -28 l-18 -23 -1419 0 c-781 0 -1418 3 -1417 7 2 4 127 79 278 166 225
130 1791 1033 1950 1126 25 14 97 55 160 91 63 37 122 70 130 76 51 32 363
209 369 209 4 0 7 -50 8 -110 0 -123 12 -151 60 -145 45 5 53 28 53 152 l0
113 43 -24 c23 -13 227 -131 452 -262z"/>
<path d="M2996 4747 c-21 -16 -24 -60 -6 -82 7 -8 52 -38 101 -66 49 -27 91
-54 94 -60 11 -16 54 -10 75 11 19 19 21 53 6 79 -10 16 -215 131 -234 131
-10 0 -26 -6 -36 -13z"/>
<path d="M2060 3040 c-11 -11 -20 -26 -20 -33 0 -17 117 -219 133 -229 7 -4
26 -8 43 -8 22 0 34 7 44 24 12 23 8 33 -45 127 -32 56 -66 110 -76 120 -25
25 -54 24 -79 -1z"/>
<path d="M2292 2675 c-26 -19 -33 -48 -17 -77 33 -63 70 -127 94 -163 24 -35
31 -40 66 -40 34 0 41 4 49 26 7 22 1 39 -43 114 -28 48 -51 90 -51 94 0 10
-42 47 -61 54 -9 3 -26 -1 -37 -8z"/>
<path d="M3859 4692 c-122 -73 -129 -79 -129 -113 0 -31 23 -49 61 -49 22 0
185 87 222 118 36 31 9 102 -39 102 -10 0 -62 -26 -115 -58z"/>
<path d="M4868 3053 c-27 -31 -128 -207 -128 -223 0 -29 30 -60 58 -60 30 0
39 11 116 143 47 81 53 104 36 138 -13 24 -61 25 -82 2z"/>
<path d="M4617 2653 c-68 -108 -107 -184 -107 -206 0 -41 53 -72 85 -49 15 10
124 201 131 228 9 37 -12 64 -51 64 -29 0 -38 -6 -58 -37z"/>
<path d="M3465 2040 c-15 -17 -18 -38 -18 -133 1 -162 -1 -153 33 -167 25 -10
34 -10 55 4 25 16 25 19 25 150 0 143 -3 152 -53 161 -16 3 -30 -2 -42 -15z"/>
<path d="M4199 1917 c-18 -14 -127 -196 -130 -217 -4 -35 2 -50 26 -66 23 -15
27 -15 49 -1 32 22 141 214 138 246 -1 14 -6 29 -10 33 -15 15 -56 18 -73 5z"/>
<path d="M2740 1900 c-11 -11 -20 -27 -20 -37 0 -22 89 -179 121 -214 30 -32
73 -34 95 -4 17 22 5 53 -67 171 -64 106 -90 123 -129 84z"/>
<path d="M3469 1621 c-21 -17 -23 -27 -24 -132 -1 -148 9 -178 61 -179 45 0
54 27 54 161 0 84 -4 131 -12 142 -19 25 -54 28 -79 8z"/>
<path d="M3962 1523 c-23 -21 -119 -183 -127 -216 -9 -35 28 -77 63 -71 15 3
28 9 30 13 2 5 30 54 62 109 62 104 71 139 44 166 -20 21 -47 20 -72 -1z"/>
<path d="M2960 1510 c-29 -29 -28 -34 23 -122 88 -154 94 -161 138 -153 24 5
49 30 49 50 0 15 -127 227 -142 237 -22 13 -47 9 -68 -12z"/>
<path d="M3460 1195 c-9 -11 -13 -56 -13 -147 -1 -117 1 -132 18 -144 25 -19
60 -18 79 2 13 12 16 40 16 140 0 69 -5 134 -10 145 -13 24 -72 26 -90 4z"/>
<path d="M3738 1136 c-10 -7 -18 -16 -18 -19 0 -4 -25 -47 -55 -97 -58 -96
-66 -127 -37 -152 32 -28 49 -28 76 -1 14 14 26 29 26 34 0 4 22 45 50 91 27
46 50 93 50 105 0 45 -54 68 -92 39z"/>
<path d="M3193 1120 c-28 -26 -23 -43 50 -167 60 -102 61 -103 98 -103 38 0
51 10 56 43 3 18 -92 192 -125 230 -20 23 -53 22 -79 -3z"/>
<path d="M80 6420 c-11 -11 -20 -27 -20 -36 0 -18 67 -135 84 -146 51 -36 139
58 137 147 0 37 -37 55 -112 55 -56 0 -73 -4 -89 -20z"/>
<path d="M6817 6430 c-72 -5 -105 -27 -91 -60 4 -8 8 -26 9 -39 2 -32 70 -101
100 -101 21 0 63 46 108 118 9 13 -9 81 -21 83 -4 0 -14 1 -22 3 -8 1 -46 -1
-83 -4z"/>
<path d="M418 6418 c-34 -26 -22 -84 19 -94 15 -4 76 -7 137 -8 102 -1 113 1
134 21 26 26 27 41 6 71 -14 21 -22 22 -148 22 -90 0 -137 -4 -148 -12z"/>
<path d="M870 6410 c-36 -36 -16 -89 33 -91 34 -1 178 -1 214 0 38 1 63 24 63
56 0 48 -21 55 -161 55 -116 0 -131 -2 -149 -20z"/>
<path d="M1328 6418 c-24 -20 -28 -55 -9 -79 16 -19 27 -21 151 -21 127 0 135
1 152 22 22 27 22 39 2 68 -14 21 -22 22 -148 22 -91 0 -137 -4 -148 -12z"/>
<path d="M1774 6405 c-20 -31 -12 -71 17 -80 11 -4 75 -7 141 -7 99 0 123 3
139 18 25 23 25 70 0 84 -11 5 -78 10 -150 10 -128 0 -131 0 -147 -25z"/>
<path d="M2226 6417 c-10 -8 -18 -26 -18 -41 0 -51 16 -57 162 -59 127 -1 133
0 151 22 24 30 24 46 -1 71 -18 18 -33 20 -148 20 -91 0 -133 -4 -146 -13z"/>
<path d="M2677 6412 c-36 -40 -10 -91 46 -93 105 -3 209 -1 230 5 44 11 52 72
13 98 -6 4 -70 8 -142 8 -114 0 -133 -2 -147 -18z"/>
<path d="M4029 6409 c-21 -21 -19 -51 6 -77 19 -20 271 -21 289 -1 26 27 28
57 7 78 -19 19 -33 21 -151 21 -118 0 -132 -2 -151 -21z"/>
<path d="M4487 6412 c-33 -36 -11 -91 36 -93 32 -1 155 -1 204 0 47 1 73 21
73 56 0 48 -20 55 -164 55 -116 0 -135 -2 -149 -18z"/>
<path d="M4947 6418 c-25 -19 -28 -54 -8 -79 16 -20 26 -21 146 -22 127 0 129
0 151 27 14 16 21 33 17 44 -13 37 -34 42 -163 42 -85 0 -132 -4 -143 -12z"/>
<path d="M5387 6412 c-20 -22 -22 -52 -4 -76 11 -15 31 -17 145 -18 114 -1
134 1 152 17 25 23 26 57 2 78 -15 14 -42 17 -149 17 -113 0 -132 -2 -146 -18z"/>
<path d="M5839 6409 c-21 -21 -19 -51 6 -77 11 -12 144 -19 251 -13 51 3 77
58 44 91 -18 18 -34 20 -150 20 -118 0 -132 -2 -151 -21z"/>
<path d="M6296 6414 c-19 -19 -21 -54 -3 -78 11 -16 30 -18 146 -18 112 0 135
3 152 18 24 22 24 56 1 77 -27 24 -273 25 -296 1z"/>
<path d="M360 6255 c-16 -19 -16 -61 0 -80 6 -8 59 -39 118 -70 111 -59 141
-64 162 -26 20 38 -4 65 -115 129 -110 64 -143 73 -165 47z"/>
<path d="M6489 6212 c-120 -71 -129 -79 -129 -108 0 -30 25 -54 59 -54 37 0
230 115 240 143 9 22 -2 56 -23 69 -24 16 -55 6 -147 -50z"/>
<path d="M270 6138 c-56 -21 -53 -46 22 -175 74 -124 98 -142 135 -99 29 34
27 40 -43 161 -66 112 -80 126 -114 113z"/>
<path d="M6693 6143 c-7 -3 -42 -54 -79 -114 -56 -93 -64 -114 -59 -140 8 -37
43 -56 72 -40 18 9 72 90 125 188 31 57 20 99 -28 107 -11 2 -25 1 -31 -1z"/>
<path d="M730 6029 c-23 -43 -9 -60 108 -131 117 -70 130 -75 163 -58 19 11
26 54 11 76 -15 22 -220 134 -245 134 -16 0 -30 -8 -37 -21z"/>
<path d="M6113 5986 c-115 -68 -140 -101 -108 -136 10 -11 25 -20 34 -20 28 0
225 125 241 152 13 24 13 29 -4 47 -11 12 -29 20 -40 20 -12 -1 -67 -29 -123
-63z"/>
<path d="M1132 5840 c-27 -11 -36 -32 -28 -64 4 -18 36 -43 115 -90 60 -36
118 -66 128 -66 46 0 71 72 36 102 -24 20 -188 115 -210 121 -10 3 -28 1 -41
-3z"/>
<path d="M5740 5777 c-113 -68 -139 -97 -116 -132 26 -39 73 -31 177 30 52 30
100 63 107 72 25 34 7 78 -38 87 -19 4 -52 -10 -130 -57z"/>
<path d="M6451 5753 c-29 -25 -131 -201 -131 -227 0 -33 21 -56 54 -59 28 -2
34 5 92 103 74 124 80 144 59 176 -18 28 -45 31 -74 7z"/>
<path d="M492 5744 c-13 -9 -22 -26 -22 -40 0 -27 97 -200 127 -225 22 -19 71
-18 84 2 17 27 9 50 -52 155 -73 125 -92 140 -137 108z"/>
<path d="M1509 5616 c-28 -13 -38 -67 -17 -86 7 -7 60 -40 118 -74 109 -66
130 -70 156 -31 28 43 10 69 -91 129 -119 71 -136 77 -166 62z"/>
<path d="M5370 5559 c-58 -34 -111 -68 -117 -77 -35 -44 3 -95 61 -82 36 8
167 81 204 114 24 21 30 67 10 84 -34 27 -55 22 -158 -39z"/>
<path d="M1893 5409 c-12 -4 -26 -17 -32 -28 -21 -38 2 -65 116 -131 59 -35
114 -65 120 -66 23 -4 56 31 56 59 0 38 -13 50 -116 109 -114 66 -117 67 -144
57z"/>
<path d="M5063 5388 c-72 -38 -158 -91 -180 -111 -25 -23 -30 -59 -10 -75 35
-29 68 -22 172 39 113 67 136 95 111 134 -21 32 -50 36 -93 13z"/>
<path d="M6239 5368 c-9 -7 -42 -57 -73 -110 -62 -106 -70 -148 -31 -174 34
-22 63 3 126 109 70 115 79 149 47 171 -27 19 -49 20 -69 4z"/>
<path d="M707 5352 c-10 -10 -17 -27 -17 -37 0 -18 88 -179 118 -214 36 -43
102 -29 102 23 0 21 -96 193 -127 229 -21 22 -56 22 -76 -1z"/>
<path d="M2246 5174 c-9 -8 -16 -26 -16 -39 0 -28 25 -48 152 -124 86 -51 88
-52 118 -36 27 14 31 21 28 53 -3 35 -8 39 -108 99 -108 64 -147 75 -174 47z"/>
<path d="M4605 5120 c-114 -68 -130 -85 -116 -123 16 -41 55 -45 115 -14 165
87 210 134 171 177 -28 31 -63 23 -170 -40z"/>
<path d="M5998 4983 c-28 -33 -118 -193 -122 -219 -6 -34 26 -66 62 -62 21 2
36 19 73 83 84 141 93 165 73 194 -19 26 -65 28 -86 4z"/>
<path d="M926 4968 c-9 -12 -16 -28 -16 -34 0 -16 119 -217 133 -226 7 -4 26
-8 43 -8 23 0 34 6 42 24 12 27 -9 74 -90 204 -34 52 -44 62 -68 62 -18 0 -35
-8 -44 -22z"/>
<path d="M1176 4598 c-9 -5 -21 -21 -27 -35 -8 -21 -1 -39 47 -121 72 -124 80
-132 121 -132 44 0 64 36 42 78 -25 48 -102 176 -116 194 -19 21 -46 28 -67
16z"/>
<path d="M5774 4602 c-14 -8 -60 -83 -106 -170 -31 -59 -32 -64 -18 -90 12
-21 23 -27 49 -27 27 0 37 6 50 30 9 17 37 66 64 111 47 81 57 120 35 142 -13
13 -57 16 -74 4z"/>
<path d="M5564 4220 c-25 -10 -144 -206 -144 -238 0 -12 9 -31 21 -43 38 -38
59 -23 131 96 36 61 67 119 67 131 2 40 -37 68 -75 54z"/>
<path d="M1386 4201 c-24 -26 -19 -67 12 -114 15 -23 37 -59 47 -80 33 -64 59
-87 97 -84 25 2 35 9 42 29 8 23 1 42 -54 137 -59 102 -75 119 -117 127 -6 1
-19 -6 -27 -15z"/>
</g>
</svg>
